# xmcd CD database file
#
# Track frame offsets:
#	150
#	20334
#	40472
#	60594
#
# Disc length: 1072 seconds
#
# Revision: 6
# Processed by: cddbd v1.5.2PL0 Copyright (c) Steve Scherf et al.
# Submitted via: CDex 1.70beta2
#
DISCID=2c042e04
DTITLE=ALI PROJECT - 暗黒天使
DYEAR=2007
DGENRE=Anime
TTITLE0=暗黒天国
TTITLE1=桃色天国
TTITLE2=暗黒天国 (Instrumental)
TTITLE3=桃色天国 (Instrumental)
EXTD=YEAR: 2007
EXTT0=
EXTT1=
EXTT2=
EXTT3=
PLAYORDER=
